0
SECTION
2
HEADER
9
$INSUNITS
70
4
9
$ACADVER
1
AC1014
9
$HANDSEED
5
FFFF
0
ENDSEC
0
SECTION
2
TABLES
0
TABLE
2
VPORT
5
8
100
AcDbSymbolTable
0
ENDTAB
0
TABLE
2
LTYPE
5
5
100
AcDbSymbolTable
0
LTYPE
5
14
100
AcDbSymbolTableRecord
100
AcDbLinetypeTableRecord
2
BYBLOCK
70
0
0
LTYPE
5
15
100
AcDbSymbolTableRecord
100
AcDbLinetypeTableRecord
2
BYLAYER
70
0
0
ENDTAB
0
TABLE
2
LAYER
5
2
100
AcDbSymbolTable
70
2
0
LAYER
5
50
100
AcDbSymbolTableRecord
100
AcDbLayerTableRecord
2
0
70
0
6
CONTINUOUS
0
ENDTAB
0
TABLE
2
STYLE
5
3
100
AcDbSymbolTable
70
1
0
STYLE
5
11
100
AcDbSymbolTableRecord
100
AcDbTextStyleTableRecord
2
STANDARD
70
0
0
ENDTAB
0
TABLE
2
VIEW
5
6
100
AcDbSymbolTable
70
0
0
ENDTAB
0
TABLE
2
UCS
5
7
100
AcDbSymbolTable
70
0
0
ENDTAB
0
TABLE
2
APPID
5
9
100
AcDbSymbolTable
70
2
0
APPID
5
12
100
AcDbSymbolTableRecord
100
AcDbRegAppTableRecord
2
ACAD
70
0
0
ENDTAB
0
TABLE
2
DIMSTYLE
5
A
100
AcDbSymbolTable
70
1
0
ENDTAB
0
TABLE
2
BLOCK_RECORD
5
1
100
AcDbSymbolTable
70
1
0
BLOCK_RECORD
5
1F
100
AcDbSymbolTableRecord
100
AcDbBlockTableRecord
2
*MODEL_SPACE
0
BLOCK_RECORD
5
1B
100
AcDbSymbolTableRecord
100
AcDbBlockTableRecord
2
*PAPER_SPACE
0
ENDTAB
0
ENDSEC
0
SECTION
2
BLOCKS
0
BLOCK
5
20
100
AcDbEntity
100
AcDbBlockBegin
2
*MODEL_SPACE
0
ENDBLK
5
21
100
AcDbEntity
100
AcDbBlockEnd
0
BLOCK
5
1C
100
AcDbEntity
100
AcDbBlockBegin
2
*PAPER_SPACE
0
ENDBLK
5
1D
100
AcDbEntity
100
AcDbBlockEnd
0
ENDSEC
0
SECTION
2
ENTITIES
0
CIRCLE
5
100
100
AcDbEntity
8
0
100
AcDbCircle
10
0
20
13
30
0
40
1
0
CIRCLE
5
101
100
AcDbEntity
8
0
100
AcDbCircle
10
-13
20
2.886579864025407e-15
30
0
40
1
0
CIRCLE
5
102
100
AcDbEntity
8
0
100
AcDbCircle
10
-1.5920408388915593e-15
20
-13
30
0
40
1
0
CIRCLE
5
103
100
AcDbEntity
8
0
100
AcDbCircle
10
13
20
-2.886579864025407e-15
30
0
40
1
0
LWPOLYLINE
5
104
100
AcDbEntity
8
0
100
AcDbPolyline
90
24
70
1
43
0.0
10
-2.3942118014367204
20
14.807692252672638
42
-0.49799603570179674
10
2.3942118014367182
20
14.80769225267264
42
-0.062616885775161654
10
5.9852020997688271
20
13.754175941324984
42
0.10883863341178375
10
31.465549803299719
20
39.243724269628913
42
-0.99999999999999989
10
39.245128315355025
20
31.466953849025838
42
0.10918108649402268
10
13.759751002888652
20
5.9723740956595197
42
-0.062382856796953941
10
14.807692252672638
20
2.3942118014367173
42
-0.49799603570179674
10
14.807692252672638
20
-2.3942118014367217
42
-0.062616885775161654
10
13.754175941324966
20
-5.9852020997688271
42
0.10883863341178436
10
39.243724269628906
20
-31.46554980329973
42
-0.99999999999999989
10
31.466953849025813
20
-39.245128315355053
42
0.10918108649402294
10
5.9723740956595091
20
-13.759751002888654
42
-0.062382856796953719
10
2.3942118014367186
20
-14.807692252672634
42
-0.49799603570179674
10
-2.3942118014367182
20
-14.80769225267264
42
-0.062616885775161654
10
-5.9852020997688271
20
-13.754175941324975
42
0.1088386334117845
10
-31.465549803299723
20
-39.243724269628913
42
-0.99999999999999989
10
-39.245128315355032
20
-31.46695384902582
42
0.10918108649402287
10
-13.759751002888652
20
-5.9723740956595197
42
-0.062382856796953941
10
-14.807692252672638
20
-2.3942118014367173
42
-0.49799603570179674
10
-14.807692252672638
20
2.3942118014367217
42
-0.062616885775161654
10
-13.754175941324966
20
5.9852020997688271
42
0.10883863341178436
10
-39.243724269628906
20
31.46554980329973
42
-0.99999999999999989
10
-31.466953849025813
20
39.245128315355053
42
0.10918108649402294
10
-5.9723740956595108
20
13.759751002888654
42
-0.062382856796953719
0
CIRCLE
5
105
100
AcDbEntity
8
0
100
AcDbCircle
10
37.688791437242983
20
37.688791437242976
30
0
40
0.75000000000000178
0
CIRCLE
5
106
100
AcDbEntity
8
0
100
AcDbCircle
10
32.167783832573456
20
36.209441908165687
30
0
40
0.75000000000000178
0
CIRCLE
5
107
100
AcDbEntity
8
0
100
AcDbCircle
10
36.209441908165701
20
32.167783832573448
30
0
40
0.75000000000000178
0
CIRCLE
5
108
100
AcDbEntity
8
0
100
AcDbCircle
10
35.355339059327378
20
35.35533905932737
30
0
40
1.4999999999999991
0
CIRCLE
5
109
100
AcDbEntity
8
0
100
AcDbCircle
10
-36.209441908165672
20
32.167783832573463
30
0
40
0.75000000000000178
0
CIRCLE
5
110
100
AcDbEntity
8
0
100
AcDbCircle
10
-37.688791437242969
20
37.68879143724299
30
0
40
0.75000000000000178
0
CIRCLE
5
111
100
AcDbEntity
8
0
100
AcDbCircle
10
-32.167783832573434
20
36.209441908165715
30
0
40
0.75000000000000178
0
CIRCLE
5
112
100
AcDbEntity
8
0
100
AcDbCircle
10
-35.355339059327363
20
35.355339059327385
30
0
40
1.4999999999999991
0
CIRCLE
5
113
100
AcDbEntity
8
0
100
AcDbCircle
10
-32.167783832573463
20
-36.20944190816568
30
0
40
0.75000000000000178
0
CIRCLE
5
114
100
AcDbEntity
8
0
100
AcDbCircle
10
-37.68879143724299
20
-37.688791437242976
30
0
40
0.75000000000000178
0
CIRCLE
5
115
100
AcDbEntity
8
0
100
AcDbCircle
10
-36.209441908165708
20
-32.167783832573441
30
0
40
0.75000000000000178
0
CIRCLE
5
116
100
AcDbEntity
8
0
100
AcDbCircle
10
-35.355339059327385
20
-35.35533905932737
30
0
40
1.4999999999999991
0
CIRCLE
5
117
100
AcDbEntity
8
0
100
AcDbCircle
10
36.209441908165672
20
-32.167783832573463
30
0
40
0.75000000000000178
0
CIRCLE
5
118
100
AcDbEntity
8
0
100
AcDbCircle
10
37.688791437242969
20
-37.68879143724299
30
0
40
0.75000000000000178
0
CIRCLE
5
119
100
AcDbEntity
8
0
100
AcDbCircle
10
32.167783832573434
20
-36.209441908165715
30
0
40
0.75000000000000178
0
CIRCLE
5
120
100
AcDbEntity
8
0
100
AcDbCircle
10
35.355339059327363
20
-35.355339059327385
30
0
40
1.4999999999999991
0
CIRCLE
5
121
100
AcDbEntity
8
0
100
AcDbCircle
10
0
20
0
30
0
40
10
0
ENDSEC
0
SECTION
2
OBJECTS
0
DICTIONARY
5
C
100
AcDbDictionary
3
ACAD_GROUP
350
D
3
ACAD_MLINESTYLE
350
17
0
DICTIONARY
5
D
100
AcDbDictionary
0
DICTIONARY
5
1A
330
C
100
AcDbDictionary
0
DICTIONARY
5
17
100
AcDbDictionary
0
ENDSEC
0
EOF
